<svg width="15" height="18" viewBox="0 0 15 18" fill="none" xmlns="http://www.w3.org/2000/svg">
<path d="M14.5209 6.13681C14.4141 6.21782 12.5273 7.25653 12.5273 9.56616C12.5273 12.2376 14.9281 13.1827 15 13.2061C14.9889 13.2637 14.6186 14.5005 13.7342 15.7606C12.9456 16.8695 12.122 17.9766 10.8691 17.9766C9.61614 17.9766 9.2937 17.2655 7.84732 17.2655C6.43778 17.2655 5.93662 18 4.79057 18C3.64452 18 2.84486 16.9739 1.92544 15.7138C0.860459 14.234 0 11.9352 0 9.75338C0 6.25383 2.32895 4.39784 4.62105 4.39784C5.83896 4.39784 6.8542 5.17912 7.61884 5.17912C8.34664 5.17912 9.48164 4.35104 10.8672 4.35104C11.3923 4.35104 13.2791 4.39784 14.5209 6.13681ZM10.2094 2.86949C10.7825 2.20522 11.1878 1.28353 11.1878 0.361836C11.1878 0.234023 11.1768 0.10441 11.1528 0C10.2205 0.0342034 9.11129 0.606661 8.44245 1.36454C7.91733 1.94779 7.42722 2.86949 7.42722 3.80378C7.42722 3.94419 7.45117 4.08461 7.46223 4.12961C7.52119 4.14041 7.617 4.15302 7.71281 4.15302C8.54932 4.15302 9.6014 3.60576 10.2094 2.86949Z" fill="black"/>
</svg>
